PathFileType	4	(X/Y/Z)	s03c0401.trc
DataRate	CameraRate	NumFrames	NumMarkers	Units	OrigDataRate	OrigDataStartFrame	OrigNumFrames
200	200	4	52	mm	200	1250	2000
Frame#	Time	racr			lacr			c7			jug			rlel			rdr			llel			ldr			s2			lic			ric			lasi			rasi			rpsi			lpsi			rgt			lgt			rth1			rth2			rth3			rth4			rlfc			rmfc			rsh1			rsh2			rsh3			rsh4			rlmal			rmmal			rcal			rtoe			rmt5			rmt1			lth1			lth2			lth4			lth3			llfc			lmfc			lsh1			lsh2			lsh3			lsh4			llmal			lmmal			lcal			ltoe			lmt1			lmt5			SBIKE			LBIKE			RBIKE			
		X1	Y1	Z1	X2	Y2	Z2	X3	Y3	Z3	X4	Y4	Z4	X5	Y5	Z5	X6	Y6	Z6	X7	Y7	Z7	X8	Y8	Z8	X9	Y9	Z9	X10	Y10	Z10	X11	Y11	Z11	X12	Y12	Z12	X13	Y13	Z13	X14	Y14	Z14	X15	Y15	Z15	X16	Y16	Z16	X17	Y17	Z17	X18	Y18	Z18	X19	Y19	Z19	X20	Y20	Z20	X21	Y21	Z21	X22	Y22	Z22	X23	Y23	Z23	X24	Y24	Z24	X25	Y25	Z25	X26	Y26	Z26	X27	Y27	Z27	X28	Y28	Z28	X29	Y29	Z29	X30	Y30	Z30	X31	Y31	Z31	X32	Y32	Z32	X33	Y33	Z33	X34	Y34	Z34	X35	Y35	Z35	X36	Y36	Z36	X37	Y37	Z37	X38	Y38	Z38	X39	Y39	Z39	X40	Y40	Z40	X41	Y41	Z41	X42	Y42	Z42	X43	Y43	Z43	X44	Y44	Z44	X45	Y45	Z45	X46	Y46	Z46	X47	Y47	Z47	X48	Y48	Z48	X49	Y49	Z49	X50	Y50	Z50	X51	Y51	Z51	X52	Y52	Z52	
1250	6.2500	789.673550	1453.369410	-71.423431	774.357533	1431.140770	-406.510260	735.707963	1535.493368	-240.060492	718.211892	1358.188166	-231.599595	657.900795	1226.787990	88.293156	756.424593	985.186866	-11.648227	641.141659	1224.592441	-565.463299	732.605801	974.262357	-465.902191	190.285682	1285.160434	-246.361688	380.926559	1286.906294	-417.705112	346.227407	1330.917357	-58.423784	388.679717	1219.935804	-366.126967	379.191669	1262.487879	-91.623977	215.249066	1338.846733	-209.022230	225.913574	1330.748783	-292.531380	305.652700	1235.330344	-33.358256	293.178295	1162.287498	-418.370559	422.924437	1125.022809	-8.400775	506.127235	1092.445400	-7.640987	560.860390	1027.594080	-7.425841	525.591207	1120.361989	-23.084243	646.746137	931.341185	-30.619943	655.553498	911.067718	-158.229905	523.872099	825.998922	-14.309102	468.877744	758.044424	-33.312773	386.660659	726.675556	-37.599171	488.567655	736.821045	-56.361202	275.205868	652.749678	-62.285382	304.095578	650.019937	-147.709965	200.486525	663.617799	-100.712996	403.158347	430.788735	-129.393757	318.091685	504.343890	-50.619197	338.484707	502.064587	-164.381904	305.695767	1014.918798	-428.903895	328.954332	931.273776	-428.258235	365.190044	932.499584	-425.163652	307.481076	845.827802	-417.117119	330.305139	722.278372	-389.834024	330.737470	705.213406	-267.209121	259.509953	571.663266	-429.422650	256.781394	486.704338	-419.087026	209.964957	409.434189	-421.841907	288.414995	477.775321	-398.016897	166.289957	292.299275	-412.345543	220.986044	313.063797	-317.037308	95.960701	291.735569	-373.731338	339.609007	98.566506	-353.783878	266.864297	162.782046	-323.532336	234.353122	150.894162	-435.396291	-216.914313	944.904131	-235.439472	-11.896337	80.723039	-435.563465	-11.951904	81.166982	-35.120473	
1251	6.2550	789.776809	1452.034082	-69.402571	775.413412	1431.320674	-404.360603	736.271368	1534.398557	-237.852261	718.334911	1357.110381	-229.996282	656.760324	1226.037252	90.396194	755.846465	985.438311	-11.775049	642.848776	1224.942901	-564.006053	733.592022	974.041782	-466.423156	189.567191	1287.414139	-245.991346	381.080585	1287.652365	-416.764017	345.617428	1331.789555	-57.926076	388.144874	1220.873195	-365.313560	377.880343	1263.600390	-90.800884	215.065142	1340.259433	-207.666642	225.710596	1332.785743	-291.889053	304.798732	1236.922820	-33.249513	292.872424	1163.585055	-418.278048	422.061776	1126.381905	-9.018351	505.503301	1094.121198	-8.847946	560.524174	1029.772591	-9.523624	524.721316	1122.452120	-23.625045	648.355250	935.932738	-32.939051	658.615744	915.501359	-161.387282	528.843793	827.516277	-16.368478	474.508776	758.625932	-34.675932	392.870232	725.783025	-37.675645	494.260068	737.860588	-58.134678	281.747235	649.707249	-62.137619	309.765280	647.755873	-147.829503	206.056000	659.020091	-100.264481	414.369126	431.273116	-129.732494	327.539515	502.642557	-50.690698	347.993669	501.041218	-164.633573	306.296348	1016.607599	-428.694203	329.715248	933.014632	-428.115934	365.883259	934.408640	-424.998273	308.534966	847.500154	-417.209805	330.770296	723.474379	-390.816474	330.881707	706.789677	-268.181249	257.844464	573.989031	-430.587792	253.812581	489.078324	-420.181209	205.765394	412.474864	-422.902679	285.221399	479.681507	-398.973867	160.523082	296.076639	-413.349130	215.366317	315.678653	-317.829839	90.238410	297.452482	-374.953881	328.837414	98.266672	-353.279473	257.670938	164.778339	-323.952500	225.005724	152.040996	-434.367501	-216.985022	944.867021	-235.630106	-11.902527	80.732766	-435.545965	-11.629135	80.856367	-35.252940	
1252	6.2600	790.174803	1450.171443	-67.493410	776.618540	1431.143652	-402.093910	737.012476	1533.040381	-235.768174	718.491813	1355.819548	-228.331666	655.838258	1225.167922	92.573512	755.641706	985.801063	-11.739296	644.437776	1225.182520	-562.648531	734.687340	973.270371	-467.357345	189.019460	1289.613139	-245.391601	380.783429	1288.695188	-415.723651	345.147460	1332.715770	-57.138285	387.295276	1222.095509	-364.548270	376.668896	1264.752267	-90.151972	214.647507	1342.438322	-206.648507	224.779088	1335.115319	-291.377527	304.205506	1238.672981	-32.979274	292.249495	1165.295202	-418.219761	421.100113	1127.816393	-9.841206	504.692854	1095.643578	-10.366331	560.059448	1031.499945	-11.751747	523.792560	1124.346025	-24.389252	649.177511	940.374019	-34.769802	660.639292	919.444802	-164.804892	532.611537	827.966411	-18.480486	479.232971	758.624834	-35.653154	398.121615	723.816483	-38.618343	498.894449	737.885937	-60.161200	287.648416	645.848150	-62.050503	314.702684	644.744980	-147.974204	211.123958	653.410856	-99.723645	425.339462	431.391314	-130.117149	336.761193	500.487569	-50.879724	356.951787	499.584160	-164.831840	307.042496	1018.413269	-428.420086	331.113405	934.997780	-427.884830	367.112635	936.630334	-424.780948	310.504744	849.282793	-417.137219	332.443296	724.989317	-392.019488	331.351692	708.309478	-269.850831	257.295867	576.441155	-431.717475	251.631430	491.664371	-421.118765	202.224162	415.919440	-423.859824	282.875031	481.665259	-399.853463	155.168590	300.517517	-414.443741	209.883624	318.706660	-318.634363	84.911491	303.685074	-375.775565	318.027272	98.802334	-352.765630	248.622682	167.361568	-324.239362	215.909269	154.743670	-434.215397	-216.898844	944.877451	-235.415691	-11.902454	80.765609	-435.541935	-11.640770	80.863606	-35.259335	
1253	6.2650	790.681986	1448.294484	-65.771452	777.892630	1430.605667	-399.893756	737.944085	1531.394206	-233.754931	718.629163	1354.362770	-226.740189	654.608134	1224.367923	94.882744	755.368583	986.034844	-11.579692	645.836967	1225.350124	-561.439135	735.574008	972.911577	-468.081975	188.334612	1292.319311	-244.083695	380.107564	1290.152936	-414.715326	344.876855	1333.855904	-56.128231	386.246705	1223.536377	-363.842782	375.554629	1266.137212	-89.597614	214.303759	1344.950066	-205.319952	224.540514	1337.367985	-290.286858	304.003250	1240.858561	-32.626841	291.431862	1167.250384	-418.089647	420.658750	1128.914665	-11.728869	503.826650	1097.051427	-11.938305	560.219907	1032.472338	-15.133528	522.883210	1125.934580	-25.524850	650.033269	944.015448	-38.462327	661.082345	923.697988	-168.753921	535.416573	827.491733	-20.717808	482.923125	757.201195	-37.383317	402.405783	721.362118	-38.985375	502.478526	737.069286	-62.414178	292.781955	641.431437	-61.598465	318.927583	640.936851	-148.126413	215.501609	646.704590	-99.023476	435.954582	431.337691	-130.366158	345.785624	497.663811	-51.086472	365.460898	497.579364	-164.828270	308.131910	1020.291537	-428.109171	333.152812	937.148499	-427.807130	369.031563	939.156332	-424.541172	313.439377	851.151670	-417.280744	335.416764	726.694706	-393.269361	333.234676	709.674399	-271.359363	257.702946	579.010145	-432.832875	250.353856	494.463386	-422.041805	199.403785	419.744495	-424.661602	281.333702	483.849654	-400.755281	149.967577	305.674612	-415.149006	204.561228	322.141490	-319.448033	79.927614	310.803211	-376.189258	307.482926	99.818286	-352.510050	239.899217	170.317826	-324.743924	207.033909	159.089708	-435.312889	-217.039490	945.013081	-235.232105	-11.920851	80.818081	-435.531057	-11.668527	80.875029	-35.251829	
